  0
SECTION
  2
HEADER
  9
$ACADVER
  1
AC1009
  9
$INSUNITS
 70
4
  9
$EXTMIN
 10
0.0
 20
0.0
  9
$EXTMAX
 10
200.0
 20
100.0
  0
ENDSEC
  0
SECTION
  2
TABLES
  0
TABLE
  2
LAYER
 70
1
  0
LAYER
  2
0
 70
0
 62
7
  6
CONTINUOUS
  0
ENDTAB
  0
ENDSEC
  0
SECTION
  2
ENTITIES
  0
POLYLINE
  8
0
 66
1
 70
1
 10
0.0
 20
0.0
 30
0.0
  0
VERTEX
  8
0
 10
0.000
 20
0.000
 30
0.0
  0
VERTEX
  8
0
 10
200.000
 20
0.000
 30
0.0
  0
VERTEX
  8
0
 10
200.000
 20
100.000
 30
0.0
  0
VERTEX
  8
0
 10
0.000
 20
100.000
 30
0.0
  0
SEQEND
  8
0
  0
CIRCLE
  8
0
 10
25.000
 20
50.000
 30
0.0
 40
6.000
  0
LINE
  8
0
 10
105.000
 20
35.000
 30
0.0
 11
155.000
 21
35.000
 31
0.0
  0
ARC
  8
0
 10
155.000
 20
40.000
 30
0.0
 40
5.000
 50
270.000
 51
360.000
  0
LINE
  8
0
 10
160.000
 20
40.000
 30
0.0
 11
160.000
 21
60.000
 31
0.0
  0
ARC
  8
0
 10
155.000
 20
60.000
 30
0.0
 40
5.000
 50
0.000
 51
90.000
  0
LINE
  8
0
 10
155.000
 20
65.000
 30
0.0
 11
105.000
 21
65.000
 31
0.0
  0
ARC
  8
0
 10
105.000
 20
60.000
 30
0.0
 40
5.000
 50
90.000
 51
180.000
  0
LINE
  8
0
 10
100.000
 20
60.000
 30
0.0
 11
100.000
 21
40.000
 31
0.0
  0
ARC
  8
0
 10
105.000
 20
40.000
 30
0.0
 40
5.000
 50
180.000
 51
270.000
  0
ENDSEC
  0
EOF
